<svg width="30" height="30" viewBox="0 0 30 30" fill="none" xmlns="http://www.w3.org/2000/svg">
<path fill-rule="evenodd" clip-rule="evenodd" d="M15 0C6.71573 0 0 6.71573 0 15C0 23.2843 6.71573 30 15 30C23.2843 30 30 23.2843 30 15C30 6.71573 23.2843 0 15 0ZM12.3997 8.06664H17.5997C19.9926 8.06664 21.9331 10.0071 21.9331 12.4V17.6C21.9331 19.9928 19.9926 21.9333 17.5997 21.9333H12.3997C10.0069 21.9333 8.06641 19.9928 8.06641 17.6V12.4C8.06641 10.0071 10.0069 8.06664 12.3997 8.06664ZM17.5997 20.6333C19.2724 20.6333 20.6331 19.2726 20.6331 17.6V12.4C20.6331 10.7273 19.2724 9.36664 17.5997 9.36664H12.3997C10.7271 9.36664 9.36641 10.7273 9.36641 12.4V17.6C9.36641 19.2726 10.7271 20.6333 12.3997 20.6333H17.5997ZM14.9996 11.5333C13.0851 11.5333 11.5329 13.0855 11.5329 15C11.5329 16.9144 13.0851 18.4666 14.9996 18.4666C16.914 18.4666 18.4662 16.9144 18.4662 15C18.4662 13.0855 16.914 11.5333 14.9996 11.5333ZM14.9996 17.1666C13.8053 17.1666 12.8329 16.1942 12.8329 15C12.8329 13.8048 13.8053 12.8333 14.9996 12.8333C16.1938 12.8333 17.1662 13.8048 17.1662 15C17.1662 16.1942 16.1938 17.1666 14.9996 17.1666ZM19.1885 11.2733C19.1885 11.5284 18.9817 11.7353 18.7266 11.7353C18.4715 11.7353 18.2647 11.5284 18.2647 11.2733C18.2647 11.0182 18.4715 10.8114 18.7266 10.8114C18.9817 10.8114 19.1885 11.0182 19.1885 11.2733Z" fill="#FEB700"/>
</svg>
