<svg width="30" height="30" viewBox="0 0 30 30" fill="none" xmlns="http://www.w3.org/2000/svg">
<path fill-rule="evenodd" clip-rule="evenodd" d="M15 0C6.71573 0 0 6.71573 0 15C0 23.2843 6.71573 30 15 30C23.2843 30 30 23.2843 30 15C30 6.71573 23.2843 0 15 0ZM21.8612 19.0253C21.8779 19.0527 21.896 19.0868 21.9154 19.128C21.9348 19.169 21.9542 19.2417 21.974 19.3455C21.9932 19.4497 21.992 19.5428 21.9697 19.6249C21.9474 19.7069 21.8781 19.7823 21.7614 19.8508C21.645 19.9191 21.4809 19.9535 21.27 19.9535L19.1374 19.9863C19.0039 20.0137 18.8485 20 18.6711 19.9453C18.4933 19.8905 18.3489 19.8303 18.2377 19.7645L18.0711 19.666C17.9046 19.5508 17.7103 19.3758 17.488 19.1403C17.2659 18.9049 17.0757 18.6929 16.9174 18.5039C16.7591 18.315 16.5897 18.1562 16.4092 18.0275C16.2285 17.8987 16.0717 17.8563 15.9384 17.9001C15.9217 17.9057 15.8996 17.915 15.872 17.9288C15.8441 17.9425 15.7967 17.9823 15.7301 18.048C15.6637 18.1135 15.604 18.1943 15.5511 18.2901C15.4982 18.386 15.4508 18.5284 15.4093 18.7172C15.3678 18.9061 15.3496 19.1182 15.3553 19.3536C15.3553 19.4356 15.3456 19.511 15.3261 19.5795C15.3068 19.6478 15.286 19.6986 15.2637 19.7312L15.2305 19.7724C15.1305 19.8764 14.9833 19.9366 14.789 19.9531H13.831C13.4366 19.9749 13.0312 19.9298 12.6147 19.8175C12.1981 19.7053 11.833 19.5602 11.5192 19.3824C11.2054 19.2043 10.9194 19.0236 10.6611 18.8401C10.4029 18.6567 10.2071 18.4993 10.0739 18.3679L9.86556 18.1708C9.81003 18.1161 9.73364 18.0341 9.63639 17.9244C9.53926 17.815 9.34073 17.5658 9.04081 17.177C8.74089 16.7884 8.44655 16.3749 8.15777 15.9368C7.86906 15.4991 7.52884 14.9213 7.13733 14.204C6.74582 13.4868 6.38346 12.7421 6.05025 11.97C6.0169 11.8825 6.00024 11.8086 6.00024 11.7483C6.00024 11.6881 6.00864 11.6443 6.0253 11.6169L6.05865 11.5677C6.14198 11.4636 6.30024 11.4115 6.53349 11.4115L8.81606 11.3952C8.88276 11.4061 8.94654 11.4238 9.00767 11.4485C9.06871 11.4732 9.1132 11.4965 9.14092 11.5183L9.18262 11.543C9.27146 11.6033 9.33814 11.6908 9.38252 11.8058C9.49354 12.0796 9.62125 12.363 9.76574 12.656C9.91014 12.9488 10.0239 13.172 10.1072 13.3253L10.2405 13.5635C10.4016 13.892 10.5571 14.1767 10.707 14.4176C10.857 14.6585 10.9917 14.846 11.1111 14.9802C11.2305 15.1144 11.3457 15.2197 11.4567 15.2964C11.5678 15.3731 11.6622 15.4115 11.74 15.4115C11.8177 15.4115 11.8928 15.3976 11.9649 15.3703C11.976 15.3649 11.9899 15.3512 12.0065 15.3293C12.0232 15.3074 12.0565 15.2472 12.1065 15.1486C12.1565 15.0501 12.194 14.9214 12.219 14.7626C12.2441 14.6039 12.2703 14.3821 12.2982 14.0974C12.3259 13.8127 12.3259 13.4705 12.2982 13.0707C12.2871 12.8518 12.2621 12.652 12.2232 12.4713C12.1843 12.2906 12.1455 12.1646 12.1065 12.0935L12.0565 11.9948C11.9176 11.8087 11.6817 11.6909 11.3484 11.6417C11.2763 11.6309 11.2902 11.5652 11.3902 11.4446C11.4846 11.3407 11.5901 11.2585 11.7067 11.1983C12.0011 11.056 12.6648 10.9902 13.6977 11.0012C14.1532 11.0067 14.528 11.0422 14.8224 11.1079C14.9333 11.1353 15.0265 11.1723 15.1015 11.2188C15.1763 11.2654 15.2333 11.3311 15.2723 11.4159C15.311 11.5009 15.3404 11.5885 15.3595 11.6788C15.3789 11.7691 15.3887 11.8937 15.3887 12.0525C15.3887 12.2113 15.3861 12.3619 15.3804 12.5042C15.3747 12.6465 15.3679 12.8395 15.3595 13.0832C15.3512 13.3268 15.3471 13.5527 15.3471 13.7608C15.3471 13.821 15.3445 13.9359 15.3388 14.1057C15.3331 14.2754 15.3319 14.407 15.3345 14.5C15.3373 14.5931 15.3471 14.7038 15.3637 14.8326C15.3804 14.9613 15.4122 15.0681 15.4596 15.153C15.5067 15.2378 15.5692 15.3049 15.6469 15.3542C15.6915 15.3651 15.7386 15.376 15.7887 15.3871C15.8386 15.3981 15.9107 15.368 16.0051 15.2967C16.0997 15.2254 16.2051 15.1311 16.3218 15.0133C16.4383 14.8957 16.5827 14.7122 16.7548 14.4632C16.9272 14.214 17.1159 13.9198 17.3214 13.5802C17.6547 13.0108 17.9517 12.3948 18.2129 11.7323C18.235 11.6776 18.2628 11.6295 18.296 11.5886C18.3293 11.5475 18.3599 11.5188 18.3876 11.5024L18.4208 11.4777L18.4625 11.4572L18.5709 11.4325C18.6432 11.416 18.6987 11.4147 18.7376 11.4283L21.1367 11.412C21.3533 11.3846 21.531 11.3914 21.67 11.4325C21.8087 11.4736 21.8948 11.5187 21.9281 11.568L21.9777 11.6499C22.1055 12.0004 21.689 12.8051 20.7281 14.0645C20.5949 14.2398 20.4145 14.4724 20.1867 14.7626C19.7536 15.3102 19.5035 15.6687 19.4369 15.8384C19.3427 16.063 19.3813 16.2847 19.5537 16.5038C19.648 16.6188 19.873 16.8433 20.2284 17.1773H20.2368L20.2452 17.1856L20.2535 17.1937L20.27 17.2101C21.0531 17.9274 21.5836 18.5324 21.8612 19.0253Z" fill="#FEB700"/>
</svg>
