<svg width="32" height="32" viewBox="0 0 32 32" fill="none" xmlns="http://www.w3.org/2000/svg">
<circle cx="16" cy="16" r="15" stroke="#FEB700" stroke-width="2"/>
<path d="M14.3419 9.27469L14.342 9.27467L14.3397 9.27291C14.0938 9.07965 13.7644 9.03616 13.4763 9.1655L13.4762 9.16529L13.4695 9.16881C13.184 9.31833 13 9.61721 13 9.93954V22.0395C13 22.3619 13.184 22.6607 13.4695 22.8103C13.5949 22.876 13.7204 22.8979 13.825 22.8979C14.0103 22.8979 14.1973 22.8335 14.3439 22.7027L21.6919 16.6544L21.6928 16.6537C21.8975 16.4821 22 16.2447 22 15.9895C22 15.7334 21.8792 15.4774 21.6917 15.3245C21.6916 15.3244 21.6915 15.3244 21.6915 15.3243L14.3419 9.27469ZM19.841 15.9895L14.65 20.2711V11.708L19.841 15.9895Z" fill="#FEB700" stroke="#FEB700" stroke-width="0.25"/>
</svg>
