<svg width="115" height="29" viewBox="0 0 115 29" fill="none" xmlns="http://www.w3.org/2000/svg">
<path fill-rule="evenodd" clip-rule="evenodd" d="M10.7858 0H-0.000976562L14.3952 14.502L0.00292969 29H10.7897L25.1767 14.5114L25.1634 14.498L25.1728 14.4886L10.7858 0Z" fill="#13181F"/>
<path fill-rule="evenodd" clip-rule="evenodd" d="M28.7536 0H17.9668L32.3625 14.5015L17.9697 29H28.7565L43.1435 14.5114L43.1307 14.4985L43.1405 14.4886L28.7536 0Z" fill="#13181F"/>
<path fill-rule="evenodd" clip-rule="evenodd" d="M46.7155 0H35.9287L50.3249 14.502L35.9326 29H46.7194L61.1064 14.5114L61.0931 14.498L61.1025 14.4886L46.7155 0Z" fill="#13181F"/>
<path fill-rule="evenodd" clip-rule="evenodd" d="M64.6799 0H53.8931L68.2888 14.5015L53.896 29H64.6828L79.0697 14.5114L79.057 14.4985L79.0668 14.4886L64.6799 0Z" fill="#13181F"/>
<path fill-rule="evenodd" clip-rule="evenodd" d="M82.6457 0H71.8589L86.2551 14.502L71.8628 29H82.6496L97.0365 14.5114L97.0233 14.498L97.0326 14.4886L82.6457 0Z" fill="#13181F"/>
<path fill-rule="evenodd" clip-rule="evenodd" d="M100.61 0H89.8228L104.219 14.502L89.8267 29H100.613L115 14.5114L114.987 14.498L114.996 14.4886L100.61 0Z" fill="#13181F"/>
</svg>
