<svg width="367" height="29" viewBox="0 0 367 29" fill="none" xmlns="http://www.w3.org/2000/svg">
<path fill-rule="evenodd" clip-rule="evenodd" d="M10.793 0H0L14.3962 14.502L0.00390625 29H10.797L25.1922 14.503L25.1873 14.498L25.1883 14.497L10.793 0Z" fill="#202833"/>
<path fill-rule="evenodd" clip-rule="evenodd" d="M28.7808 0H17.9878L32.3835 14.5015L17.9907 29H28.7838L43.1791 14.503L43.1746 14.4985L43.1761 14.497L28.7808 0Z" fill="#202833"/>
<path fill-rule="evenodd" clip-rule="evenodd" d="M46.7647 0H35.9717L50.3679 14.502L35.9756 29H46.7686L61.1639 14.503L61.159 14.498L61.16 14.497L46.7647 0Z" fill="#202833"/>
<path fill-rule="evenodd" clip-rule="evenodd" d="M64.7496 0H53.9565L68.3522 14.5015L53.9595 29H64.7525L79.1478 14.503L79.1434 14.4985L79.1449 14.497L64.7496 0Z" fill="#202833"/>
<path fill-rule="evenodd" clip-rule="evenodd" d="M82.7369 0H71.9438L86.34 14.502L71.9478 29H82.7408L97.1361 14.503L97.1312 14.498L97.1322 14.497L82.7369 0Z" fill="#202833"/>
<path fill-rule="evenodd" clip-rule="evenodd" d="M100.722 0H89.9287L104.325 14.502L89.9326 29H100.726L115.121 14.503L115.116 14.498L115.117 14.497L100.722 0Z" fill="#202833"/>
<path fill-rule="evenodd" clip-rule="evenodd" d="M118.516 0H107.723L122.119 14.5015L107.726 29H118.519L132.914 14.503L132.91 14.4985L132.911 14.497L118.516 0Z" fill="#202833"/>
<path fill-rule="evenodd" clip-rule="evenodd" d="M136.503 0H125.71L140.107 14.502L125.714 29H136.507L150.903 14.503L150.898 14.498L150.899 14.497L136.503 0Z" fill="#202833"/>
<path fill-rule="evenodd" clip-rule="evenodd" d="M154.488 0H143.695L158.091 14.5015L143.698 29H154.491L168.887 14.503L168.882 14.4985L168.884 14.497L154.488 0Z" fill="#202833"/>
<path fill-rule="evenodd" clip-rule="evenodd" d="M172.472 0H161.679L176.075 14.502L161.683 29H172.476L186.871 14.503L186.867 14.498L186.868 14.497L172.472 0Z" fill="#202833"/>
<path fill-rule="evenodd" clip-rule="evenodd" d="M190.46 0H179.667L194.063 14.502L179.671 29H190.464L204.859 14.503L204.854 14.498L204.855 14.497L190.46 0Z" fill="#202833"/>
<path fill-rule="evenodd" clip-rule="evenodd" d="M208.445 0H197.652L212.048 14.5015L197.655 29H208.448L222.844 14.503L222.839 14.4985L222.841 14.497L208.445 0Z" fill="#202833"/>
<path fill-rule="evenodd" clip-rule="evenodd" d="M225.501 0H214.708L229.104 14.502L214.711 29H225.504L239.9 14.503L239.895 14.498L239.896 14.497L225.501 0Z" fill="#202833"/>
<path fill-rule="evenodd" clip-rule="evenodd" d="M243.489 0H232.696L247.092 14.502L232.7 29H243.493L257.888 14.503L257.883 14.498L257.884 14.497L243.489 0Z" fill="#202833"/>
<path fill-rule="evenodd" clip-rule="evenodd" d="M261.678 0H250.885L265.281 14.502L250.889 29H261.682L276.077 14.503L276.073 14.498L276.074 14.497L261.678 0Z" fill="#202833"/>
<path fill-rule="evenodd" clip-rule="evenodd" d="M279.667 0H268.874L283.269 14.5015L268.876 29H279.67L294.065 14.503L294.06 14.4985L294.062 14.497L279.667 0Z" fill="#202833"/>
<path fill-rule="evenodd" clip-rule="evenodd" d="M297.65 0H286.857L301.254 14.502L286.861 29H297.654L312.05 14.503L312.045 14.498L312.046 14.497L297.65 0Z" fill="#202833"/>
<path fill-rule="evenodd" clip-rule="evenodd" d="M315.635 0H304.842L319.238 14.5015L304.845 29H315.638L330.034 14.503L330.029 14.4985L330.031 14.497L315.635 0Z" fill="#202833"/>
<path fill-rule="evenodd" clip-rule="evenodd" d="M333.622 0H322.829L337.225 14.502L322.833 29H333.626L348.021 14.503L348.016 14.498L348.017 14.497L333.622 0Z" fill="#202833"/>
<path fill-rule="evenodd" clip-rule="evenodd" d="M351.607 0H340.814L355.21 14.502L340.818 29H351.611L366.006 14.503L366.001 14.498L366.002 14.497L351.607 0Z" fill="#202833"/>
</svg>
